<?xml version="1.0" standalone="no"?>
<!DOCTYPE svg PUBLIC "-//W3C//DTD SVG 20010904//EN"
 "http://www.w3.org/TR/2001/REC-SVG-20010904/DTD/svg10.dtd">
<svg version="1.0" xmlns="http://www.w3.org/2000/svg"
 width="292.000000pt" height="175.000000pt" viewBox="0 0 292.000000 175.000000"
 preserveAspectRatio="xMidYMid meet">

<g transform="translate(0.000000,175.000000) scale(0.100000,-0.100000)"
fill="#000000" stroke="none">
<path d="M667 1634 c-4 -4 -7 -16 -7 -26 0 -72 -135 -327 -327 -618 -219 -330
-283 -469 -283 -612 0 -90 15 -138 56 -187 43 -50 102 -73 184 -73 118 0 213
61 385 249 177 194 245 251 336 282 l50 17 -59 56 c-66 64 -107 78 -169 58
-28 -9 -67 -43 -148 -129 -280 -296 -388 -375 -473 -345 -76 27 -90 152 -34
303 37 99 83 186 232 435 127 215 210 377 243 473 12 38 27 70 32 72 15 5 48
-68 256 -566 105 -252 234 -560 286 -685 l96 -228 123 0 c68 0 124 2 124 5 0
3 -19 42 -42 88 -23 45 -169 386 -324 757 l-282 675 -124 3 c-68 1 -127 -1
-131 -4z"/>
<path d="M1598 1603 c4 -21 7 -348 7 -728 0 -379 -3 -707 -7 -728 l-7 -37 131
0 130 0 -7 23 c-4 12 -10 184 -12 381 l-5 359 243 -6 c133 -4 305 -7 382 -7
l139 0 -5 -347 c-3 -192 -8 -360 -12 -376 l-7 -27 130 0 131 0 -7 38 c-4 20
-7 348 -7 727 0 380 3 707 7 728 l7 37 -131 0 -130 0 7 -27 c4 -16 9 -187 12
-382 l5 -354 -289 9 c-158 5 -330 8 -381 7 l-94 -2 5 352 c2 194 8 362 12 375
l7 22 -130 0 -131 0 7 -37z"/>
</g>
</svg>
